<svg width="263" height="150" viewBox="0 0 263 150" fill="none" xmlns="http://www.w3.org/2000/svg">
<path d="M128.798 75.8242C128.798 105.411 102.587 129.396 70.2534 129.396C37.9202 129.396 11.7089 105.411 11.7089 75.8242C11.7089 46.2375 37.9202 22.2527 70.2534 22.2527C102.587 22.2527 128.798 46.2375 128.798 75.8242Z" fill="white"/>
<path d="M222.469 96.4286C222.469 126.015 196.258 150 163.925 150C131.591 150 105.38 126.015 105.38 96.4286C105.38 66.8419 131.591 42.8571 163.925 42.8571C196.258 42.8571 222.469 66.8419 222.469 96.4286Z" fill="white"/>
<path d="M117.089 96.4286C117.089 126.015 90.8778 150 58.5445 150C26.2113 150 0 126.015 0 96.4286C0 66.8419 26.2113 42.8571 58.5445 42.8571C90.8778 42.8571 117.089 66.8419 117.089 96.4286Z" fill="white"/>
<path d="M234.178 81.5934C234.178 111.18 207.967 135.165 175.634 135.165C143.3 135.165 117.089 111.18 117.089 81.5934C117.089 52.0067 143.3 28.022 175.634 28.022C207.967 28.022 234.178 52.0067 234.178 81.5934Z" fill="white"/>
<path d="M263 96.4286C263 126.015 236.789 150 204.455 150C172.122 150 145.911 126.015 145.911 96.4286C145.911 66.8419 172.122 42.8572 204.455 42.8572C236.789 42.8572 263 66.8419 263 96.4286Z" fill="white"/>
<path d="M145.911 96.4286C145.911 126.015 119.7 150 87.3664 150C55.0332 150 28.8219 126.015 28.8219 96.4286C28.8219 66.8419 55.0332 42.8571 87.3664 42.8571C119.7 42.8571 145.911 66.8419 145.911 96.4286Z" fill="white"/>
<path d="M242.284 96.4286C242.284 126.015 216.073 150 183.74 150C151.406 150 125.195 126.015 125.195 96.4286C125.195 66.8419 151.406 42.8571 183.74 42.8571C216.073 42.8571 242.284 66.8419 242.284 96.4286Z" fill="white"/>
<path d="M247.688 96.4286C247.688 126.015 221.477 150 189.144 150C156.811 150 130.599 126.015 130.599 96.4286C130.599 66.8419 156.811 42.8571 189.144 42.8571C221.477 42.8571 247.688 66.8419 247.688 96.4286Z" fill="white"/>
<path d="M162.123 96.4286C162.123 126.015 135.912 150 103.579 150C71.2455 150 45.0342 126.015 45.0342 96.4286C45.0342 66.8419 71.2455 42.8571 103.579 42.8571C135.912 42.8571 162.123 66.8419 162.123 96.4286Z" fill="white"/>
<path d="M122.493 96.4286C122.493 126.015 96.2819 150 63.9486 150C31.6154 150 5.40411 126.015 5.40411 96.4286C5.40411 66.8419 31.6154 42.8571 63.9486 42.8571C96.2819 42.8571 122.493 66.8419 122.493 96.4286Z" fill="white"/>
<path d="M175.634 96.4286C175.634 126.015 149.422 150 117.089 150C84.7558 150 58.5445 126.015 58.5445 96.4286C58.5445 66.8419 84.7558 42.8571 117.089 42.8571C149.422 42.8571 175.634 66.8419 175.634 96.4286Z" fill="white"/>
<path d="M234.178 96.4286C234.178 126.015 207.967 150 175.634 150C143.3 150 117.089 126.015 117.089 96.4286C117.089 66.8419 143.3 42.8571 175.634 42.8571C207.967 42.8571 234.178 66.8419 234.178 96.4286Z" fill="white"/>
<path d="M242.284 96.4286C242.284 126.015 216.073 150 183.74 150C151.406 150 125.195 126.015 125.195 96.4286C125.195 66.8419 151.406 42.8571 183.74 42.8571C216.073 42.8571 242.284 66.8419 242.284 96.4286Z" fill="white"/>
<path d="M257.596 96.4286C257.596 126.015 231.385 150 199.051 150C166.718 150 140.507 126.015 140.507 96.4286C140.507 66.8419 166.718 42.8571 199.051 42.8571C231.385 42.8571 257.596 66.8419 257.596 96.4286Z" fill="white"/>
<path d="M242.284 96.4286C242.284 126.015 216.073 150 183.74 150C151.406 150 125.195 126.015 125.195 96.4286C125.195 66.8419 151.406 42.8571 183.74 42.8571C216.073 42.8571 242.284 66.8419 242.284 96.4286Z" fill="white"/>
<path d="M191.846 96.4286C191.846 126.015 165.635 150 133.301 150C100.968 150 74.7569 126.015 74.7569 96.4286C74.7569 66.8419 100.968 42.8571 133.301 42.8571C165.635 42.8571 191.846 66.8419 191.846 96.4286Z" fill="white"/>
<path d="M216.164 96.4286C216.164 126.015 189.953 150 157.62 150C125.287 150 99.0753 126.015 99.0753 96.4286C99.0753 66.8419 125.287 42.8571 157.62 42.8571C189.953 42.8571 216.164 66.8419 216.164 96.4286Z" fill="white"/>
<path d="M234.178 96.4286C234.178 126.015 207.967 150 175.634 150C143.3 150 117.089 126.015 117.089 96.4286C117.089 66.8419 143.3 42.8571 175.634 42.8571C207.967 42.8571 234.178 66.8419 234.178 96.4286Z" fill="white"/>
<path d="M157.62 96.4286C157.62 126.015 131.409 150 99.0753 150C66.7421 150 40.5308 126.015 40.5308 96.4286C40.5308 66.8419 66.7421 42.8571 99.0753 42.8571C131.409 42.8571 157.62 66.8419 157.62 96.4286Z" fill="white"/>
<path d="M133.301 96.4286C133.301 126.015 107.09 150 74.7569 150C42.4236 150 16.2123 126.015 16.2123 96.4286C16.2123 66.8419 42.4236 42.8571 74.7569 42.8571C107.09 42.8571 133.301 66.8419 133.301 96.4286Z" fill="white"/>
<path d="M230.575 96.4286C230.575 126.015 204.364 150 172.031 150C139.698 150 113.486 126.015 113.486 96.4286C113.486 66.8419 139.698 42.8571 172.031 42.8571C204.364 42.8571 230.575 66.8419 230.575 96.4286Z" fill="white"/>
<path d="M204.455 96.4286C204.455 126.015 178.244 150 145.911 150C113.578 150 87.3664 126.015 87.3664 96.4286C87.3664 66.8419 113.578 42.8571 145.911 42.8571C178.244 42.8571 204.455 66.8419 204.455 96.4286Z" fill="white"/>
<path d="M242.284 96.4286C242.284 126.015 216.073 150 183.74 150C151.406 150 125.195 126.015 125.195 96.4286C125.195 66.8419 151.406 42.8571 183.74 42.8571C216.073 42.8571 242.284 66.8419 242.284 96.4286Z" fill="white"/>
<path d="M230.575 96.4286C230.575 126.015 204.364 150 172.031 150C139.698 150 113.486 126.015 113.486 96.4286C113.486 66.8419 139.698 42.8571 172.031 42.8571C204.364 42.8571 230.575 66.8419 230.575 96.4286Z" fill="white"/>
<path d="M183.74 96.4286C183.74 126.015 157.528 150 125.195 150C92.862 150 66.6507 126.015 66.6507 96.4286C66.6507 66.8419 92.862 42.8571 125.195 42.8571C157.528 42.8571 183.74 66.8419 183.74 96.4286Z" fill="white"/>
<path d="M172.031 96.4286C172.031 126.015 145.82 150 113.486 150C81.1531 150 54.9418 126.015 54.9418 96.4286C54.9418 66.8419 81.1531 42.8571 113.486 42.8571C145.82 42.8571 172.031 66.8419 172.031 96.4286Z" fill="white"/>
<path d="M172.031 53.5714C172.031 83.1581 145.82 107.143 113.486 107.143C81.1531 107.143 54.9418 83.1581 54.9418 53.5714C54.9418 23.9847 81.1531 0 113.486 0C145.82 0 172.031 23.9847 172.031 53.5714Z" fill="white"/>
<path d="M210.76 139.286H46.8356L45.9349 148.764L58.7906 150H205.356L210.76 149.554V139.286Z" fill="white"/>
<path d="M37.2701 76.0156C37.1507 74.8991 36.6479 74.0298 35.7615 73.4077C34.8837 72.7855 33.7417 72.4744 32.3354 72.4744C31.3468 72.4744 30.4988 72.6236 29.7914 72.9219C29.084 73.2202 28.5428 73.625 28.1678 74.1364C27.7928 74.6477 27.601 75.2315 27.5925 75.8878C27.5925 76.4332 27.7161 76.9062 27.9632 77.3068C28.2189 77.7074 28.5641 78.0483 28.9988 78.3295C29.4334 78.6023 29.915 78.8324 30.4434 79.0199C30.9718 79.2074 31.5044 79.3651 32.0414 79.4929L34.4959 80.1065C35.4846 80.3367 36.4348 80.6477 37.3468 81.0398C38.2672 81.4318 39.0897 81.9261 39.8141 82.5227C40.5471 83.1193 41.1266 83.8395 41.5527 84.6832C41.9789 85.527 42.1919 86.5156 42.1919 87.6491C42.1919 89.1832 41.7999 90.5341 41.0158 91.7017C40.2317 92.8608 39.0982 93.7685 37.6152 94.4247C36.1408 95.0724 34.3553 95.3963 32.2587 95.3963C30.2218 95.3963 28.4533 95.081 26.9533 94.4503C25.4618 93.8196 24.2942 92.8991 23.4505 91.6889C22.6152 90.4787 22.1635 89.0043 22.0953 87.2656H26.7615C26.8297 88.1776 27.111 88.9361 27.6053 89.5412C28.0996 90.1463 28.7431 90.598 29.5357 90.8963C30.3368 91.1946 31.2317 91.3438 32.2203 91.3438C33.2516 91.3438 34.155 91.1903 34.9306 90.8835C35.7147 90.5682 36.3283 90.1335 36.7715 89.5795C37.2147 89.017 37.4405 88.3608 37.449 87.6108C37.4405 86.929 37.2402 86.3665 36.8482 85.9233C36.4561 85.4716 35.9064 85.0966 35.199 84.7983C34.5002 84.4915 33.682 84.2187 32.7445 83.9801L29.7658 83.2131C27.6096 82.6591 25.905 81.8196 24.6522 80.6946C23.4078 79.5611 22.7857 78.0568 22.7857 76.1818C22.7857 74.6392 23.2033 73.2883 24.0385 72.1293C24.8823 70.9702 26.0286 70.071 27.4775 69.4318C28.9263 68.7841 30.5669 68.4602 32.3993 68.4602C34.2573 68.4602 35.8851 68.7841 37.2828 69.4318C38.6891 70.071 39.7928 70.9616 40.5939 72.1037C41.3951 73.2372 41.8084 74.5412 41.834 76.0156H37.2701Z" fill="#008CD4"/>
<path d="M50.4345 88.8381L50.4217 83.2514H51.1632L58.22 75.3636H63.6277L54.9473 85.0284H53.9885L50.4345 88.8381ZM46.2157 95V68.8182H50.8436V95H46.2157ZM58.5396 95L52.1475 86.0639L55.2669 82.804L64.0751 95H58.5396Z" fill="#008CD4"/>
<path d="M69.7992 102.364C69.1685 102.364 68.5847 102.313 68.0478 102.21C67.5194 102.116 67.0975 102.006 66.7821 101.878L67.856 98.2727C68.5293 98.4688 69.1302 98.5625 69.6586 98.554C70.187 98.5455 70.6515 98.3793 71.052 98.0554C71.4611 97.7401 71.8063 97.2116 72.0875 96.4702L72.4838 95.4091L65.3631 75.3636H70.2722L74.7978 90.1932H75.0023L79.5407 75.3636H84.4625L76.6003 97.3778C76.2338 98.4176 75.7481 99.3082 75.1429 100.05C74.5378 100.8 73.7963 101.371 72.9185 101.763C72.0492 102.163 71.0094 102.364 69.7992 102.364Z" fill="#008CD4"/>
<path d="M119.21 77.652H114.428C114.292 76.8679 114.041 76.1733 113.674 75.5682C113.308 74.9545 112.852 74.4347 112.306 74.0085C111.761 73.5824 111.139 73.2628 110.44 73.0497C109.749 72.8281 109.004 72.7173 108.203 72.7173C106.779 72.7173 105.518 73.0753 104.419 73.7912C103.319 74.4986 102.458 75.5383 101.836 76.9105C101.214 78.2741 100.903 79.9403 100.903 81.9091C100.903 83.9119 101.214 85.5994 101.836 86.9716C102.467 88.3352 103.328 89.3665 104.419 90.0653C105.518 90.7557 106.775 91.1009 108.19 91.1009C108.974 91.1009 109.707 90.9986 110.389 90.794C111.079 90.581 111.697 90.2699 112.242 89.8608C112.796 89.4517 113.261 88.9489 113.636 88.3523C114.019 87.7557 114.284 87.0739 114.428 86.3068L119.21 86.3324C119.031 87.5767 118.643 88.7443 118.046 89.8352C117.458 90.9261 116.687 91.8892 115.732 92.7244C114.778 93.5511 113.661 94.1989 112.383 94.6676C111.105 95.1278 109.686 95.358 108.126 95.358C105.825 95.358 103.771 94.8253 101.964 93.7599C100.157 92.6946 98.7338 91.1563 97.6941 89.1449C96.6543 87.1335 96.1344 84.7216 96.1344 81.9091C96.1344 79.0881 96.6586 76.6761 97.7069 74.6733C98.7552 72.6619 100.183 71.1236 101.99 70.0582C103.796 68.9929 105.842 68.4602 108.126 68.4602C109.583 68.4602 110.938 68.6648 112.191 69.0739C113.444 69.483 114.561 70.0838 115.541 70.8764C116.521 71.6605 117.326 72.6236 117.957 73.7656C118.596 74.8991 119.014 76.1946 119.21 77.652Z" fill="#008CD4"/>
<path d="M131.914 95.3835C129.996 95.3835 128.334 94.9616 126.928 94.1179C125.522 93.2741 124.431 92.0938 123.655 90.5767C122.888 89.0597 122.505 87.2869 122.505 85.2585C122.505 83.2301 122.888 81.4531 123.655 79.9276C124.431 78.402 125.522 77.2173 126.928 76.3736C128.334 75.5298 129.996 75.108 131.914 75.108C133.831 75.108 135.493 75.5298 136.9 76.3736C138.306 77.2173 139.393 78.402 140.16 79.9276C140.935 81.4531 141.323 83.2301 141.323 85.2585C141.323 87.2869 140.935 89.0597 140.16 90.5767C139.393 92.0938 138.306 93.2741 136.9 94.1179C135.493 94.9616 133.831 95.3835 131.914 95.3835ZM131.939 91.6761C132.979 91.6761 133.849 91.3906 134.547 90.8196C135.246 90.2401 135.766 89.4645 136.107 88.4929C136.457 87.5213 136.631 86.4389 136.631 85.2457C136.631 84.044 136.457 82.9574 136.107 81.9858C135.766 81.0057 135.246 80.2259 134.547 79.6463C133.849 79.0668 132.979 78.777 131.939 78.777C130.874 78.777 129.988 79.0668 129.28 79.6463C128.582 80.2259 128.057 81.0057 127.708 81.9858C127.367 82.9574 127.197 84.044 127.197 85.2457C127.197 86.4389 127.367 87.5213 127.708 88.4929C128.057 89.4645 128.582 90.2401 129.28 90.8196C129.988 91.3906 130.874 91.6761 131.939 91.6761Z" fill="#008CD4"/>
<path d="M149.879 83.4943V95H145.251V75.3636H149.674V78.7003H149.904C150.356 77.6009 151.076 76.7273 152.065 76.0795C153.062 75.4318 154.294 75.108 155.759 75.108C157.115 75.108 158.295 75.3977 159.301 75.9773C160.315 76.5568 161.099 77.3963 161.653 78.4957C162.215 79.5952 162.492 80.929 162.484 82.4972V95H157.856V83.2131C157.856 81.9006 157.515 80.8736 156.833 80.1321C156.16 79.3906 155.227 79.0199 154.034 79.0199C153.224 79.0199 152.504 79.1989 151.873 79.5568C151.251 79.9062 150.761 80.4134 150.403 81.0781C150.053 81.7429 149.879 82.5483 149.879 83.4943Z" fill="#008CD4"/>
<path d="M171.816 83.4943V95H167.188V75.3636H171.612V78.7003H171.842C172.294 77.6009 173.014 76.7273 174.002 76.0795C174.999 75.4318 176.231 75.108 177.697 75.108C179.052 75.108 180.232 75.3977 181.238 75.9773C182.252 76.5568 183.036 77.3963 183.59 78.4957C184.153 79.5952 184.43 80.929 184.421 82.4972V95H179.794V83.2131C179.794 81.9006 179.453 80.8736 178.771 80.1321C178.097 79.3906 177.164 79.0199 175.971 79.0199C175.161 79.0199 174.441 79.1989 173.811 79.5568C173.188 79.9062 172.698 80.4134 172.34 81.0781C171.991 81.7429 171.816 82.5483 171.816 83.4943Z" fill="#008CD4"/>
<path d="M197.819 95.3835C195.85 95.3835 194.15 94.9744 192.718 94.1562C191.295 93.3295 190.2 92.1619 189.433 90.6534C188.666 89.1364 188.282 87.3509 188.282 85.2969C188.282 83.277 188.666 81.5043 189.433 79.9787C190.208 78.4446 191.291 77.2514 192.68 76.3991C194.069 75.5384 195.701 75.108 197.576 75.108C198.786 75.108 199.928 75.304 201.002 75.696C202.085 76.0795 203.039 76.6761 203.866 77.4858C204.701 78.2955 205.357 79.3267 205.835 80.5795C206.312 81.8239 206.551 83.3068 206.551 85.0284V86.4474H190.455V83.3281H202.115C202.106 82.4418 201.914 81.6534 201.539 80.9631C201.164 80.2642 200.64 79.7145 199.967 79.3139C199.302 78.9134 198.526 78.7131 197.64 78.7131C196.694 78.7131 195.863 78.9432 195.147 79.4034C194.431 79.8551 193.873 80.4517 193.472 81.1932C193.08 81.9261 192.88 82.7315 192.872 83.6094V86.3324C192.872 87.4744 193.08 88.4545 193.498 89.2727C193.916 90.0824 194.499 90.7045 195.249 91.1392C195.999 91.5653 196.877 91.7784 197.883 91.7784C198.556 91.7784 199.166 91.6847 199.711 91.4972C200.257 91.3011 200.73 91.0156 201.13 90.6406C201.531 90.2656 201.833 89.8011 202.038 89.2472L206.359 89.733C206.086 90.875 205.566 91.8722 204.799 92.7244C204.041 93.5682 203.069 94.2244 201.884 94.6932C200.7 95.1534 199.345 95.3835 197.819 95.3835Z" fill="#008CD4"/>
<path d="M219.031 95.3835C217.071 95.3835 215.388 94.9531 213.981 94.0923C212.584 93.2315 211.506 92.0426 210.747 90.5256C209.997 89 209.622 87.2443 209.622 85.2585C209.622 83.2642 210.006 81.5043 210.773 79.9787C211.54 78.4446 212.622 77.2514 214.02 76.3991C215.426 75.5384 217.088 75.108 219.006 75.108C220.599 75.108 222.01 75.402 223.237 75.9901C224.473 76.5696 225.457 77.392 226.19 78.4574C226.923 79.5142 227.341 80.75 227.443 82.1648H223.02C222.841 81.2187 222.415 80.4304 221.741 79.7997C221.077 79.1605 220.186 78.8409 219.069 78.8409C218.123 78.8409 217.292 79.0966 216.577 79.608C215.861 80.1108 215.302 80.8352 214.902 81.7812C214.51 82.7273 214.314 83.8608 214.314 85.1818C214.314 86.5199 214.51 87.6705 214.902 88.6335C215.294 89.5881 215.844 90.3253 216.551 90.8452C217.267 91.3565 218.106 91.6122 219.069 91.6122C219.751 91.6122 220.361 91.4844 220.898 91.2287C221.443 90.9645 221.899 90.5852 222.265 90.0909C222.632 89.5966 222.883 88.9957 223.02 88.2884H227.443C227.332 89.6776 226.923 90.9091 226.216 91.983C225.508 93.0483 224.545 93.8835 223.327 94.4886C222.108 95.0852 220.676 95.3835 219.031 95.3835Z" fill="#008CD4"/>
<path d="M241.048 75.3636V78.9432H229.76V75.3636H241.048ZM232.547 70.6591H237.175V89.0938C237.175 89.7159 237.269 90.1932 237.456 90.5256C237.652 90.8494 237.908 91.071 238.223 91.1903C238.539 91.3097 238.888 91.3693 239.271 91.3693C239.561 91.3693 239.825 91.348 240.064 91.3054C240.311 91.2628 240.499 91.2244 240.627 91.1903L241.406 94.8082C241.159 94.8935 240.806 94.9872 240.345 95.0895C239.894 95.1918 239.34 95.2514 238.683 95.2685C237.524 95.3026 236.48 95.1278 235.551 94.7443C234.622 94.3523 233.885 93.7472 233.34 92.929C232.803 92.1108 232.539 91.0881 232.547 89.8608V70.6591Z" fill="#008CD4"/>
</svg>
