<svg width="263" height="150" viewBox="0 0 263 150" fill="none" xmlns="http://www.w3.org/2000/svg">
<path d="M128.798 75.8242C128.798 105.411 102.587 129.396 70.2534 129.396C37.9202 129.396 11.7089 105.411 11.7089 75.8242C11.7089 46.2375 37.9202 22.2527 70.2534 22.2527C102.587 22.2527 128.798 46.2375 128.798 75.8242Z" fill="white"/>
<path d="M222.469 96.4286C222.469 126.015 196.258 150 163.925 150C131.591 150 105.38 126.015 105.38 96.4286C105.38 66.8419 131.591 42.8571 163.925 42.8571C196.258 42.8571 222.469 66.8419 222.469 96.4286Z" fill="white"/>
<path d="M117.089 96.4286C117.089 126.015 90.8778 150 58.5445 150C26.2113 150 0 126.015 0 96.4286C0 66.8419 26.2113 42.8571 58.5445 42.8571C90.8778 42.8571 117.089 66.8419 117.089 96.4286Z" fill="white"/>
<path d="M234.178 81.5934C234.178 111.18 207.967 135.165 175.634 135.165C143.3 135.165 117.089 111.18 117.089 81.5934C117.089 52.0067 143.3 28.022 175.634 28.022C207.967 28.022 234.178 52.0067 234.178 81.5934Z" fill="white"/>
<path d="M263 96.4286C263 126.015 236.789 150 204.455 150C172.122 150 145.911 126.015 145.911 96.4286C145.911 66.8419 172.122 42.8572 204.455 42.8572C236.789 42.8572 263 66.8419 263 96.4286Z" fill="white"/>
<path d="M145.911 96.4286C145.911 126.015 119.7 150 87.3664 150C55.0332 150 28.8219 126.015 28.8219 96.4286C28.8219 66.8419 55.0332 42.8571 87.3664 42.8571C119.7 42.8571 145.911 66.8419 145.911 96.4286Z" fill="white"/>
<path d="M242.284 96.4286C242.284 126.015 216.073 150 183.74 150C151.406 150 125.195 126.015 125.195 96.4286C125.195 66.8419 151.406 42.8571 183.74 42.8571C216.073 42.8571 242.284 66.8419 242.284 96.4286Z" fill="white"/>
<path d="M247.688 96.4286C247.688 126.015 221.477 150 189.144 150C156.811 150 130.599 126.015 130.599 96.4286C130.599 66.8419 156.811 42.8571 189.144 42.8571C221.477 42.8571 247.688 66.8419 247.688 96.4286Z" fill="white"/>
<path d="M162.123 96.4286C162.123 126.015 135.912 150 103.579 150C71.2455 150 45.0342 126.015 45.0342 96.4286C45.0342 66.8419 71.2455 42.8571 103.579 42.8571C135.912 42.8571 162.123 66.8419 162.123 96.4286Z" fill="white"/>
<path d="M122.493 96.4286C122.493 126.015 96.2819 150 63.9486 150C31.6154 150 5.40411 126.015 5.40411 96.4286C5.40411 66.8419 31.6154 42.8571 63.9486 42.8571C96.2819 42.8571 122.493 66.8419 122.493 96.4286Z" fill="white"/>
<path d="M175.634 96.4286C175.634 126.015 149.422 150 117.089 150C84.7558 150 58.5445 126.015 58.5445 96.4286C58.5445 66.8419 84.7558 42.8571 117.089 42.8571C149.422 42.8571 175.634 66.8419 175.634 96.4286Z" fill="white"/>
<path d="M234.178 96.4286C234.178 126.015 207.967 150 175.634 150C143.3 150 117.089 126.015 117.089 96.4286C117.089 66.8419 143.3 42.8571 175.634 42.8571C207.967 42.8571 234.178 66.8419 234.178 96.4286Z" fill="white"/>
<path d="M242.284 96.4286C242.284 126.015 216.073 150 183.74 150C151.406 150 125.195 126.015 125.195 96.4286C125.195 66.8419 151.406 42.8571 183.74 42.8571C216.073 42.8571 242.284 66.8419 242.284 96.4286Z" fill="white"/>
<path d="M257.596 96.4286C257.596 126.015 231.385 150 199.051 150C166.718 150 140.507 126.015 140.507 96.4286C140.507 66.8419 166.718 42.8571 199.051 42.8571C231.385 42.8571 257.596 66.8419 257.596 96.4286Z" fill="white"/>
<path d="M242.284 96.4286C242.284 126.015 216.073 150 183.74 150C151.406 150 125.195 126.015 125.195 96.4286C125.195 66.8419 151.406 42.8571 183.74 42.8571C216.073 42.8571 242.284 66.8419 242.284 96.4286Z" fill="white"/>
<path d="M191.846 96.4286C191.846 126.015 165.635 150 133.301 150C100.968 150 74.7569 126.015 74.7569 96.4286C74.7569 66.8419 100.968 42.8571 133.301 42.8571C165.635 42.8571 191.846 66.8419 191.846 96.4286Z" fill="white"/>
<path d="M216.164 96.4286C216.164 126.015 189.953 150 157.62 150C125.287 150 99.0753 126.015 99.0753 96.4286C99.0753 66.8419 125.287 42.8571 157.62 42.8571C189.953 42.8571 216.164 66.8419 216.164 96.4286Z" fill="white"/>
<path d="M234.178 96.4286C234.178 126.015 207.967 150 175.634 150C143.3 150 117.089 126.015 117.089 96.4286C117.089 66.8419 143.3 42.8571 175.634 42.8571C207.967 42.8571 234.178 66.8419 234.178 96.4286Z" fill="white"/>
<path d="M157.62 96.4286C157.62 126.015 131.409 150 99.0753 150C66.7421 150 40.5308 126.015 40.5308 96.4286C40.5308 66.8419 66.7421 42.8571 99.0753 42.8571C131.409 42.8571 157.62 66.8419 157.62 96.4286Z" fill="white"/>
<path d="M133.301 96.4286C133.301 126.015 107.09 150 74.7569 150C42.4236 150 16.2123 126.015 16.2123 96.4286C16.2123 66.8419 42.4236 42.8571 74.7569 42.8571C107.09 42.8571 133.301 66.8419 133.301 96.4286Z" fill="white"/>
<path d="M230.575 96.4286C230.575 126.015 204.364 150 172.031 150C139.698 150 113.486 126.015 113.486 96.4286C113.486 66.8419 139.698 42.8571 172.031 42.8571C204.364 42.8571 230.575 66.8419 230.575 96.4286Z" fill="white"/>
<path d="M204.455 96.4286C204.455 126.015 178.244 150 145.911 150C113.578 150 87.3664 126.015 87.3664 96.4286C87.3664 66.8419 113.578 42.8571 145.911 42.8571C178.244 42.8571 204.455 66.8419 204.455 96.4286Z" fill="white"/>
<path d="M242.284 96.4286C242.284 126.015 216.073 150 183.74 150C151.406 150 125.195 126.015 125.195 96.4286C125.195 66.8419 151.406 42.8571 183.74 42.8571C216.073 42.8571 242.284 66.8419 242.284 96.4286Z" fill="white"/>
<path d="M230.575 96.4286C230.575 126.015 204.364 150 172.031 150C139.698 150 113.486 126.015 113.486 96.4286C113.486 66.8419 139.698 42.8571 172.031 42.8571C204.364 42.8571 230.575 66.8419 230.575 96.4286Z" fill="white"/>
<path d="M183.74 96.4286C183.74 126.015 157.528 150 125.195 150C92.862 150 66.6507 126.015 66.6507 96.4286C66.6507 66.8419 92.862 42.8571 125.195 42.8571C157.528 42.8571 183.74 66.8419 183.74 96.4286Z" fill="white"/>
<path d="M172.031 96.4286C172.031 126.015 145.82 150 113.486 150C81.1531 150 54.9418 126.015 54.9418 96.4286C54.9418 66.8419 81.1531 42.8571 113.486 42.8571C145.82 42.8571 172.031 66.8419 172.031 96.4286Z" fill="white"/>
<path d="M172.031 53.5714C172.031 83.1581 145.82 107.143 113.486 107.143C81.1531 107.143 54.9418 83.1581 54.9418 53.5714C54.9418 23.9847 81.1531 0 113.486 0C145.82 0 172.031 23.9847 172.031 53.5714Z" fill="white"/>
<path d="M210.76 139.286H46.8356L45.9349 148.764L58.7906 150H205.356L210.76 149.554V139.286Z" fill="white"/>
</svg>
