<svg width="283" height="170" viewBox="0 0 283 170" fill="none" xmlns="http://www.w3.org/2000/svg">
<path d="M123.486 5C146.426 5.00001 166.83 16.3039 178.01 33.4424C180.513 33.165 183.057 33.0225 185.634 33.0225C202.746 33.0225 218.447 39.3123 229.961 49.6221C257.325 55.9652 278 78.7117 278 106.429C278 135.547 255.181 159.179 225.761 164.069V164.157L224.584 164.254C221.684 164.684 218.723 164.933 215.716 164.987L215.562 165H68.5508L68.5498 164.999C68.5482 164.999 68.5465 165 68.5449 165C64.0424 165 59.6375 164.563 55.3809 163.733L50.4854 163.263L50.5469 162.607C24.4295 155.496 5.00007 133.298 5 106.429C5 92.3382 10.3434 79.5321 19.1924 69.5127C26.266 46.9041 47.674 30.1816 73.3174 27.6006C85.017 13.7819 103.267 5 123.486 5Z" fill="white" stroke="#008CD4" stroke-width="10"/>
<path d="M47.2701 87.0156C47.1507 85.8991 46.6479 85.0298 45.7615 84.4077C44.8837 83.7855 43.7417 83.4744 42.3354 83.4744C41.3468 83.4744 40.4988 83.6236 39.7914 83.9219C39.084 84.2202 38.5428 84.625 38.1678 85.1364C37.7928 85.6477 37.601 86.2315 37.5925 86.8878C37.5925 87.4332 37.7161 87.9062 37.9632 88.3068C38.2189 88.7074 38.5641 89.0483 38.9988 89.3295C39.4334 89.6023 39.915 89.8324 40.4434 90.0199C40.9718 90.2074 41.5044 90.3651 42.0414 90.4929L44.4959 91.1065C45.4846 91.3366 46.4348 91.6477 47.3468 92.0398C48.2672 92.4318 49.0897 92.9261 49.8141 93.5227C50.5471 94.1193 51.1266 94.8395 51.5527 95.6832C51.9789 96.527 52.1919 97.5156 52.1919 98.6491C52.1919 100.183 51.7999 101.534 51.0158 102.702C50.2317 103.861 49.0982 104.768 47.6152 105.425C46.1408 106.072 44.3553 106.396 42.2587 106.396C40.2218 106.396 38.4533 106.081 36.9533 105.45C35.4618 104.82 34.2942 103.899 33.4505 102.689C32.6152 101.479 32.1635 100.004 32.0953 98.2656H36.7615C36.8297 99.1776 37.111 99.9361 37.6053 100.541C38.0996 101.146 38.7431 101.598 39.5357 101.896C40.3368 102.195 41.2317 102.344 42.2203 102.344C43.2516 102.344 44.155 102.19 44.9306 101.884C45.7147 101.568 46.3283 101.134 46.7715 100.58C47.2147 100.017 47.4405 99.3608 47.449 98.6108C47.4405 97.929 47.2402 97.3665 46.8482 96.9233C46.4561 96.4716 45.9064 96.0966 45.199 95.7983C44.5002 95.4915 43.682 95.2187 42.7445 94.9801L39.7658 94.2131C37.6096 93.6591 35.905 92.8196 34.6522 91.6946C33.4078 90.5611 32.7857 89.0568 32.7857 87.1818C32.7857 85.6392 33.2033 84.2884 34.0385 83.1293C34.8823 81.9702 36.0286 81.071 37.4775 80.4318C38.9263 79.7841 40.5669 79.4602 42.3993 79.4602C44.2573 79.4602 45.8851 79.7841 47.2828 80.4318C48.6891 81.071 49.7928 81.9616 50.5939 83.1037C51.3951 84.2372 51.8084 85.5412 51.834 87.0156H47.2701ZM60.4345 99.8381L60.4217 94.2514H61.1632L68.22 86.3636H73.6277L64.9473 96.0284H63.9885L60.4345 99.8381ZM56.2157 106V79.8182H60.8436V106H56.2157ZM68.5396 106L62.1476 97.0639L65.2669 93.804L74.0751 106H68.5396ZM79.7992 113.364C79.1685 113.364 78.5847 113.313 78.0478 113.21C77.5194 113.116 77.0975 113.006 76.7821 112.878L77.856 109.273C78.5293 109.469 79.1301 109.563 79.6586 109.554C80.187 109.545 80.6515 109.379 81.052 109.055C81.4611 108.74 81.8063 108.212 82.0875 107.47L82.4838 106.409L75.3631 86.3636H80.2722L84.7978 101.193H85.0023L89.5407 86.3636H94.4625L86.6003 108.378C86.2338 109.418 85.748 110.308 85.1429 111.05C84.5378 111.8 83.7963 112.371 82.9185 112.763C82.0492 113.163 81.0094 113.364 79.7992 113.364ZM129.21 88.652H124.428C124.292 87.8679 124.041 87.1733 123.674 86.5682C123.308 85.9545 122.852 85.4347 122.306 85.0085C121.761 84.5824 121.139 84.2628 120.44 84.0497C119.749 83.8281 119.004 83.7173 118.203 83.7173C116.779 83.7173 115.518 84.0753 114.419 84.7912C113.319 85.4986 112.458 86.5384 111.836 87.9105C111.214 89.2741 110.903 90.9403 110.903 92.9091C110.903 94.9119 111.214 96.5994 111.836 97.9716C112.467 99.3352 113.328 100.366 114.419 101.065C115.518 101.756 116.775 102.101 118.19 102.101C118.974 102.101 119.707 101.999 120.389 101.794C121.079 101.581 121.697 101.27 122.242 100.861C122.796 100.452 123.261 99.9489 123.636 99.3523C124.019 98.7557 124.284 98.0739 124.428 97.3068L129.21 97.3324C129.031 98.5767 128.643 99.7443 128.046 100.835C127.458 101.926 126.687 102.889 125.732 103.724C124.778 104.551 123.661 105.199 122.383 105.668C121.105 106.128 119.686 106.358 118.126 106.358C115.825 106.358 113.771 105.825 111.964 104.76C110.157 103.695 108.734 102.156 107.694 100.145C106.654 98.1335 106.134 95.7216 106.134 92.9091C106.134 90.0881 106.659 87.6761 107.707 85.6733C108.755 83.6619 110.183 82.1236 111.99 81.0582C113.796 79.9929 115.842 79.4602 118.126 79.4602C119.583 79.4602 120.938 79.6648 122.191 80.0739C123.444 80.483 124.561 81.0838 125.541 81.8764C126.521 82.6605 127.326 83.6236 127.957 84.7656C128.596 85.8991 129.014 87.1946 129.21 88.652ZM141.914 106.384C139.996 106.384 138.334 105.962 136.928 105.118C135.522 104.274 134.431 103.094 133.655 101.577C132.888 100.06 132.505 98.2869 132.505 96.2585C132.505 94.2301 132.888 92.4531 133.655 90.9276C134.431 89.402 135.522 88.2173 136.928 87.3736C138.334 86.5298 139.996 86.108 141.914 86.108C143.831 86.108 145.493 86.5298 146.9 87.3736C148.306 88.2173 149.393 89.402 150.16 90.9276C150.935 92.4531 151.323 94.2301 151.323 96.2585C151.323 98.2869 150.935 100.06 150.16 101.577C149.393 103.094 148.306 104.274 146.9 105.118C145.493 105.962 143.831 106.384 141.914 106.384ZM141.939 102.676C142.979 102.676 143.849 102.391 144.547 101.82C145.246 101.24 145.766 100.464 146.107 99.4929C146.456 98.5213 146.631 97.4389 146.631 96.2457C146.631 95.044 146.456 93.9574 146.107 92.9858C145.766 92.0057 145.246 91.2259 144.547 90.6463C143.849 90.0668 142.979 89.777 141.939 89.777C140.874 89.777 139.988 90.0668 139.28 90.6463C138.581 91.2259 138.057 92.0057 137.708 92.9858C137.367 93.9574 137.197 95.044 137.197 96.2457C137.197 97.4389 137.367 98.5213 137.708 99.4929C138.057 100.464 138.581 101.24 139.28 101.82C139.988 102.391 140.874 102.676 141.939 102.676ZM159.879 94.4943V106H155.251V86.3636H159.674V89.7003H159.904C160.356 88.6009 161.076 87.7273 162.065 87.0795C163.062 86.4318 164.294 86.108 165.759 86.108C167.115 86.108 168.295 86.3977 169.301 86.9773C170.315 87.5568 171.099 88.3963 171.653 89.4957C172.215 90.5952 172.492 91.929 172.484 93.4972V106H167.856V94.2131C167.856 92.9006 167.515 91.8736 166.833 91.1321C166.16 90.3906 165.227 90.0199 164.034 90.0199C163.224 90.0199 162.504 90.1989 161.873 90.5568C161.251 90.9062 160.761 91.4134 160.403 92.0781C160.053 92.7429 159.879 93.5483 159.879 94.4943ZM181.816 94.4943V106H177.188V86.3636H181.612V89.7003H181.842C182.294 88.6009 183.014 87.7273 184.002 87.0795C184.999 86.4318 186.231 86.108 187.697 86.108C189.052 86.108 190.232 86.3977 191.238 86.9773C192.252 87.5568 193.036 88.3963 193.59 89.4957C194.153 90.5952 194.43 91.929 194.421 93.4972V106H189.794V94.2131C189.794 92.9006 189.453 91.8736 188.771 91.1321C188.097 90.3906 187.164 90.0199 185.971 90.0199C185.161 90.0199 184.441 90.1989 183.811 90.5568C183.188 90.9062 182.698 91.4134 182.34 92.0781C181.991 92.7429 181.816 93.5483 181.816 94.4943ZM207.819 106.384C205.85 106.384 204.15 105.974 202.718 105.156C201.295 104.33 200.2 103.162 199.433 101.653C198.666 100.136 198.282 98.3509 198.282 96.2969C198.282 94.277 198.666 92.5043 199.433 90.9787C200.208 89.4446 201.291 88.2514 202.68 87.3991C204.069 86.5384 205.701 86.108 207.576 86.108C208.786 86.108 209.928 86.304 211.002 86.696C212.085 87.0795 213.039 87.6761 213.866 88.4858C214.701 89.2955 215.357 90.3267 215.835 91.5795C216.312 92.8239 216.551 94.3068 216.551 96.0284V97.4474H200.455V94.3281H212.115C212.106 93.4418 211.914 92.6534 211.539 91.9631C211.164 91.2642 210.64 90.7145 209.967 90.3139C209.302 89.9134 208.526 89.7131 207.64 89.7131C206.694 89.7131 205.863 89.9432 205.147 90.4034C204.431 90.8551 203.873 91.4517 203.472 92.1932C203.08 92.9261 202.88 93.7315 202.872 94.6094V97.3324C202.872 98.4744 203.08 99.4545 203.498 100.273C203.916 101.082 204.499 101.705 205.249 102.139C205.999 102.565 206.877 102.778 207.883 102.778C208.556 102.778 209.166 102.685 209.711 102.497C210.257 102.301 210.73 102.016 211.13 101.641C211.531 101.266 211.833 100.801 212.038 100.247L216.359 100.733C216.086 101.875 215.566 102.872 214.799 103.724C214.041 104.568 213.069 105.224 211.884 105.693C210.7 106.153 209.345 106.384 207.819 106.384ZM229.031 106.384C227.071 106.384 225.388 105.953 223.981 105.092C222.584 104.232 221.506 103.043 220.747 101.526C219.997 100 219.622 98.2443 219.622 96.2585C219.622 94.2642 220.006 92.5043 220.773 90.9787C221.54 89.4446 222.622 88.2514 224.02 87.3991C225.426 86.5384 227.088 86.108 229.006 86.108C230.599 86.108 232.01 86.402 233.237 86.9901C234.473 87.5696 235.457 88.392 236.19 89.4574C236.923 90.5142 237.341 91.75 237.443 93.1648H233.02C232.841 92.2187 232.415 91.4304 231.741 90.7997C231.077 90.1605 230.186 89.8409 229.069 89.8409C228.123 89.8409 227.292 90.0966 226.577 90.608C225.861 91.1108 225.302 91.8352 224.902 92.7812C224.51 93.7273 224.314 94.8608 224.314 96.1818C224.314 97.5199 224.51 98.6705 224.902 99.6335C225.294 100.588 225.844 101.325 226.551 101.845C227.267 102.357 228.106 102.612 229.069 102.612C229.751 102.612 230.361 102.484 230.898 102.229C231.443 101.964 231.899 101.585 232.265 101.091C232.632 100.597 232.883 99.9957 233.02 99.2884H237.443C237.332 100.678 236.923 101.909 236.216 102.983C235.508 104.048 234.545 104.884 233.327 105.489C232.108 106.085 230.676 106.384 229.031 106.384ZM251.048 86.3636V89.9432H239.76V86.3636H251.048ZM242.547 81.6591H247.175V100.094C247.175 100.716 247.269 101.193 247.456 101.526C247.652 101.849 247.908 102.071 248.223 102.19C248.539 102.31 248.888 102.369 249.271 102.369C249.561 102.369 249.825 102.348 250.064 102.305C250.311 102.263 250.499 102.224 250.627 102.19L251.406 105.808C251.159 105.893 250.806 105.987 250.345 106.089C249.894 106.192 249.34 106.251 248.683 106.268C247.524 106.303 246.48 106.128 245.551 105.744C244.622 105.352 243.885 104.747 243.34 103.929C242.803 103.111 242.539 102.088 242.547 100.861V81.6591Z" fill="#008CD4"/>
</svg>
